<?xml version="1.0" encoding="utf-8"?>
<!-- Generator: Adobe Illustrator 22.0.0, SVG Export Plug-In . SVG Version: 6.00 Build 0)  -->
<svg version="1.1" id="Layer_1" xmlns="http://www.w3.org/2000/svg" xmlns:xlink="http://www.w3.org/1999/xlink" x="0px" y="0px"
	 viewBox="0 0 358.6 115.3" style="enable-background:new 0 0 358.6 115.3;" xml:space="preserve">
<style type="text/css">
	.st0{clip-path:url(#SVGID_3_);fill:url(#SVGID_4_);}
	.st1{fill-rule:evenodd;clip-rule:evenodd;fill:#ACD036;}
	.st2{fill:#3A3E45;}
</style>
<g>
	<g>
		<defs>
			<path id="SVGID_1_" d="M21.3,70.3c10.9-15.7,23.4-7,34,3.6c3.3,3.3,6.3,6.3,12.4,0.3c29.3-29.3,34.7-43.5,79.1-43.5
				C112.5,36,96.2,70.9,80.7,98.1C71.7,114,58.4,110.6,51,95.8C44.5,82.8,35.3,62.5,21.3,70.3"/>
		</defs>
		<linearGradient id="SVGID_2_" gradientUnits="userSpaceOnUse" x1="83.9609" y1="114.9944" x2="83.9609" y2="87.0754">
			<stop  offset="0" style="stop-color:#571C56"/>
			<stop  offset="0.47" style="stop-color:#FC1141"/>
			<stop  offset="1" style="stop-color:#FCD000"/>
		</linearGradient>
		<use xlink:href="#SVGID_1_"  style="overflow:visible;fill-rule:evenodd;clip-rule:evenodd;fill:url(#SVGID_2_);"/>
		<clipPath id="SVGID_3_">
			<use xlink:href="#SVGID_1_"  style="overflow:visible;"/>
		</clipPath>
		<linearGradient id="SVGID_4_" gradientUnits="userSpaceOnUse" x1="83.9609" y1="108.5837" x2="83.9609" y2="34.3021">
			<stop  offset="0" style="stop-color:#1365AF"/>
			<stop  offset="0.47" style="stop-color:#1795D2"/>
			<stop  offset="1" style="stop-color:#14AFE5"/>
		</linearGradient>
		<rect x="21.3" y="30.7" class="st0" width="125.4" height="83.3"/>
	</g>
	<path class="st1" d="M74.4,57H54.9v-4.7h23.9C77.4,53.8,75.9,55.4,74.4,57 M85.5,45.6H54.9v-4.7h35.4
		C88.8,42.4,87.1,43.9,85.5,45.6z M90.4,29.5H61.9v4.7h28.4V29.5z M63.2,68.4c-1.2,1.3-2.3,1.3-3.4,0c-0.5-0.4-0.9-0.9-1.1-1.1
		c-1.2-1.2-2.4-2.4-3.8-3.6v0h13c-1.2,1.3-2.5,2.6-3.8,3.9C63.9,67.8,63.6,68.1,63.2,68.4z M43.6,8.8v47c1.9,0.9,3.8,2,5.6,3.2V14.4
		h38.5V25h10.6v4.9v4.7c1.8-1.3,3.6-2.4,5.6-3.5v-1.2v-2.2v-7.2L92.1,8.8H43.6z"/>
</g>
<g>
	<path class="st2" d="M134.9,47.8v6.9H147v4.8h-12.1V69h-6V43h19.7v4.8H134.9z"/>
	<path class="st2" d="M152.7,43h6V69h-6V43z"/>
	<path class="st2" d="M164.9,43h6v21.1H184V69h-19.1V43z"/>
	<path class="st2" d="M207.5,64.2V69h-20.2V43h19.7v4.8h-13.7v5.7h12.1v4.7h-12.1v6H207.5z"/>
	<path class="st2" d="M210.6,56c0-7.9,6-13.5,14.1-13.5c4.5,0,8.3,1.6,10.7,4.6l-3.9,3.6c-1.7-2-3.9-3.1-6.5-3.1
		c-4.9,0-8.3,3.4-8.3,8.3c0,4.9,3.5,8.3,8.3,8.3c2.6,0,4.8-1,6.5-3.1l3.9,3.6c-2.5,3-6.2,4.7-10.8,4.7
		C216.7,69.5,210.6,63.8,210.6,56z"/>
	<path class="st2" d="M263.4,43V69h-6V58.3h-11.8V69h-6V43h6v10.3h11.8V43H263.4z"/>
	<path class="st2" d="M289.8,64.2V69h-20.2V43h19.7v4.8h-13.7v5.7h12.1v4.7h-12.1v6H289.8z"/>
	<path class="st2" d="M292.9,56c0-7.9,6-13.5,14.1-13.5c4.5,0,8.3,1.6,10.7,4.6l-3.9,3.6c-1.7-2-3.9-3.1-6.5-3.1
		c-4.9,0-8.3,3.4-8.3,8.3c0,4.9,3.5,8.3,8.3,8.3c2.6,0,4.8-1,6.5-3.1l3.9,3.6c-2.5,3-6.2,4.7-10.8,4.7
		C298.9,69.5,292.9,63.8,292.9,56z"/>
	<path class="st2" d="M331.3,58.8l-3.5,3.6V69h-6V43h6v12.2L339.3,43h6.7l-10.8,11.6L346.7,69h-7L331.3,58.8z"/>
</g>
<g>
	<path class="st2" d="M280,86.9h-6.1l-1.3,2.9h-1.2l5-10.9h1.1l5,10.9h-1.2L280,86.9z M279.5,86l-2.6-5.9l-2.6,5.9H279.5z"/>
	<path class="st2" d="M284.1,78.2h1.1v11.6h-1.1V78.2z"/>
	<path class="st2" d="M288.3,78.2h1.1v11.6h-1.1V78.2z"/>
	<path class="st2" d="M296.8,78.9h1.2v10.9h-1.2V78.9z"/>
	<path class="st2" d="M308.8,85.1v4.8h-1.1v-4.6c0-1.7-0.9-2.6-2.5-2.6c-1.8,0-2.9,1.1-2.9,3v4.3h-1.1v-8.2h1.1v1.5
		c0.6-1,1.7-1.6,3.1-1.6C307.4,81.6,308.8,82.7,308.8,85.1z"/>
	<path class="st2" d="M315.1,84.4c0-3.2,2.4-5.5,5.7-5.5c3.3,0,5.7,2.4,5.7,5.5s-2.4,5.5-5.7,5.5C317.6,89.9,315.1,87.5,315.1,84.4z
		 M325.4,84.4c0-2.6-1.9-4.5-4.6-4.5c-2.6,0-4.6,1.9-4.6,4.5c0,2.6,2,4.5,4.6,4.5C323.5,88.9,325.4,87,325.4,84.4z"/>
	<path class="st2" d="M336.5,85.1v4.8h-1.1v-4.6c0-1.7-0.9-2.6-2.5-2.6c-1.8,0-2.9,1.1-2.9,3v4.3h-1.1v-8.2h1.1v1.5
		c0.6-1,1.7-1.6,3.1-1.6C335.1,81.6,336.5,82.7,336.5,85.1z"/>
	<path class="st2" d="M346.7,86.1h-6.9c0.1,1.7,1.4,2.9,3.2,2.9c1,0,1.9-0.4,2.5-1.1l0.6,0.7c-0.7,0.9-1.9,1.3-3.2,1.3
		c-2.6,0-4.3-1.7-4.3-4.2c0-2.4,1.7-4.2,4-4.2s4,1.7,4,4.2C346.7,85.8,346.7,85.9,346.7,86.1z M339.8,85.2h5.8
		c-0.1-1.6-1.3-2.7-2.9-2.7C341.1,82.5,339.9,83.6,339.8,85.2z"/>
</g>
</svg>
